<svg xmlns="http://www.w3.org/2000/svg" id="Layer_1" viewBox="0 0 41.32 41.32"><defs><style>.cls-1,.cls-2,.cls-3{fill-rule:evenodd}.cls-1,.cls-2{stroke-width:0}.cls-1,.cls-3{fill:#284985}.cls-2{fill:#e5c97c}.cls-3{stroke:#284985;stroke-miterlimit:22.93;stroke-width:.22px}</style></defs><path d="M35.71 20.66A15.069 15.069 0 0 1 31.3 31.3c-1.4 1.4-3.07 2.52-4.9 3.28a15.113 15.113 0 0 1-11.48 0c-1.83-.76-3.5-1.87-4.9-3.27-1.4-1.4-2.51-3.07-3.27-4.9a15.113 15.113 0 0 1 0-11.48c.76-1.83 1.87-3.5 3.27-4.9 1.4-1.4 3.07-2.52 4.9-3.28 3.65-1.51 7.84-1.51 11.48 0 1.83.76 3.5 1.87 4.9 3.27 1.4 1.4 2.51 3.07 3.27 4.9.76 1.82 1.14 3.77 1.14 5.74Zm3.07-8.17a19.983 19.983 0 0 0-4.53-6.32c-1.91-1.79-4.15-3.2-6.6-4.12C25.22 1.13 22.63.7 20.04.78c-2.6.08-5.17.67-7.55 1.75a19.983 19.983 0 0 0-6.32 4.53c-1.79 1.91-3.2 4.15-4.12 6.6C.2 18.54.38 24.07 2.53 28.82c1.08 2.38 2.62 4.53 4.53 6.32 1.91 1.79 4.15 3.2 6.6 4.12 2.42.92 5.02 1.35 7.61 1.27 2.6-.08 5.18-.67 7.55-1.75 2.38-1.08 4.53-2.62 6.32-4.53 1.79-1.91 3.2-4.15 4.12-6.6 1.85-4.88 1.67-10.41-.48-15.16Z" style="fill:#fefefe;stroke-width:0;fill-rule:evenodd"/><path d="M26.1 33.85a14.358 14.358 0 0 1-10.89 0 14.33 14.33 0 0 1-4.65-3.11 14.33 14.33 0 0 1-3.11-4.65 14.358 14.358 0 0 1 0-10.89 14.33 14.33 0 0 1 3.11-4.65 14.33 14.33 0 0 1 4.65-3.11c3.45-1.43 7.43-1.43 10.89 0 1.73.72 3.32 1.78 4.65 3.11a14.33 14.33 0 0 1 3.11 4.65c.72 1.73 1.08 3.57 1.08 5.44s-.36 3.72-1.08 5.44a14.33 14.33 0 0 1-3.11 4.65 14.33 14.33 0 0 1-4.65 3.11Zm-.82-17.6c-.02.14-.03.3-.02.43 0 .06.04.13.1.15.15.05.39-.04.42-.22l.05-.22c.14-.23.17-1.61-.12-1.91-.05-.06-.59-.33-.57-.28.25.3.22 1.66.13 2.07Zm-8.83-1.98c-.19.15-.29 1.12-.12 2.03 0 0 .01.18.1.22.06.03.25.06.3.03.07-.04.12-.12.16-.19.02-.03.04-.05.06-.07.05-.05.02-.04 0-.12-.12-.38-.18-1.58-.07-1.97.02-.1.1-.13-.02-.09l-.41.16Zm4.67 1.18c.05-.01.11-.07.15-.19a.87.87 0 0 0 0-.23c0-.05.02-.03 0-.08-.11-.28-.14-1.12-.08-1.62-.03-.12-.18-.2-.34-.2-.32 0-.28.47-.29.69-.03.47-.01 1.04.07 1.27.01.02.08.26.13.31.14.12.33.07.36.06Z" class="cls-1"/><path d="M11.72 23.08c-.16.05-.38.15-.53.08-.15-.08-.13-.42-.28-.49-.19-.09-.52-.09-.66.05-.16.16.05.53-.12.67-.06.05-.17-.01-.23.03-.15.09-.14.18-.28.26-.39.2-.91.38-1.28.67-.14.1-.17.45 0 .51.32.1.53-.06.84-.12.13-.03.22.05.36.04.15-.02.64-.18.78-.24.33-.12.27-.26.38-.25.11.01.03.24-.01.36-.07.19-.27.18-.28.39-.03.94.28 1.85.64 2.72.13.34.31.65.57.91.54.54 1.44.85 2.19 1.01 1.02.22 1.78.17 2.83.15.2 0 .33 0 .51.06.35.12.56.33.8.59.32.34.63 1.41.68 1.63.47-.11 3.89-.02 4.32.01.04-.2.44-1.34.74-1.69.23-.27.61-.42.98-.42 1.04.01 2.91.24 4.1-.28.75-.33 1.74-1.55 2.01-2.28.32-.87.31-.68.22-1.62-.01-.2.04-.21-.04-.41-.04-.11-.26-.42-.15-.43.07 0 .22-.04.41-.02.08.01.04.13.13.17.1.03.19.11.4.03.08-.03.07-.06.12-.06.13.01.11.02.24.04.4.03.45-.38.56-.4.17-.03.43-.12.33-.21-.39-.26-.58-.06-.88-.29a.762.762 0 0 0-.53-.1c-.15.03-.35.1-.43.16-.08.05-.18.01-.2 0-.06-.15.4-.6.17-.79-.15-.14-.58-.12-.77-.02-.14.08-.14.53-.15.62-.1.07-.24-.07-.45-.12-.09-.02-.08-.1-.06-.17.13-.34.27-1.92.21-2.45.08-.07.22-.31.2-.48-.03-.18-.23-.38-.33-.44-.02-1.43-.42-1.22-.36-1.7 0-.07.07-.18.17-.22.33-.12.52-.19.57-.19.14.04.23.09.24.14.02.07-.04.16-.01.26.18.61.7.55.95.22.12-.16.18-.36.05-.55-.07-.1-.17-.19-.24-.26-.11-.11.02-.21.12-.22.32-.02.33-.11.5-.22.13 0 .64-.2.75-.54.13-.03.22-.13.29-.22.23-.3.16-.43-.23-.31-.17.06-.3.01-.47.1-.19.09-.37.14-.51.25-.17.13-.15-.22-.85.25-.02-.13.11-.58-.14-.72-.4-.26-.88.07-.83.48.04.27.33.25.3.45-.05.05-.32.23-.56.33-.09.03-.18.05-.25.07-.1.01-.19.02-.22 0-.16-.43-.54-.81-.69-.98-.16-.36-.06-.74.05-.84.07-.07.09-.05.15-.02.06.06.05.14.05.21 0 .13.17.24.34.28.14.04.47 0 .54-.15.07-.17.13-.34.11-.52-.02-.24-.39-.25-.38-.55.03-.06-.01-.1.1-.14.17-.05.16-.03.24-.07.13-.09.15-.28.22-.44.18-.41.28-.39.45-.95.1-.19.24-.09.22-.47 0-.21-.28-.44-.58-.15-.08.08.05.19-.08.27-.22.24-.43.28-.57.44-.06.07-.08.2-.15.26-.15.03-.23.1-.28.18-.07.1-.07.22-.1.32-.11.12-.12.31-.28.26-.07-.13-.23-.57-.45-.53-.22-.02-.5.12-.6.34-.08.16-.05.43.07.57.06.07.39.15.39.24-.08.2-.14.31-.32.37-.13-.09-.85-.68-1.2-.89 0-.18.24-.66.39-.67.08.08.13.19.28.21.23.03.35-.04.53-.18.1-.08.19-.2.18-.34 0-.11-.06-.31-.13-.4-.07-.17-.26-.17-.49-.17-.06.01-.07-.12-.06-.17.02-.03.37-.05.46-.32.05-.15.01-.44-.06-.57.08-.07.15-.14.16-.2.04-.08-.03-.74-.04-.91-.02-.12-.05-.22-.1-.26-.21-.13-.68.51-.88.65-.19.13-.11.16-.16.53-.21.45-.13.62-.14.63-.1 0-.36-.08-.68-.02-.2.03-.56.15-.49.41.02.83.41.65.65.68.04.12.07.5-.07.58.05.03.09.06.11.07.13.13.2.47.22.83.01.17.01.35 0 .51.13.01.61.37.53.45-.06.05-.23.33-.33.31-.1-.03-.19-.26-.23-.46-.02.14-.04.25-.08.3l-.05.22v.04c-.03.08-.09.14-.16.17-.07.04-.16.05-.23.04-.01 0-.03 0-.04-.01-.03-.01-.06-.03-.07-.06s-.03-.07-.04-.11v-.2c0-.08.01-.15.02-.23.05-.24.08-.79.05-1.28-.02-.35-.08-.66-.18-.78v-.02c-.38-.17-.72-.27-1.1-.4-.05-.43-.02-.47-.06-.86.02-.03.16-.03.28.03.08.04.26-.1.35-.15.17-.12.16-.27.19-.41.03-.11-.12-.57-.27-.67-.11-.08-.29.04-.4-.01.05-.1.2-.13.19-.29.05-.23-.2-.39-.25-.63.12-.21.08-.35.24-.41.09-.09.31.01.43-.02.15-.04.32-.03.26-.17-.11-.34-.38-.13-.52-.26-.05-.09.14-.02.2-.34.03-.21-.17-.28-.15-.48.01-.22.02-.42-.07-.52-.13-.17-.53.01-.69.14-.24 0-.42.21-.46.4-.13.27.22.32.1.46-.13.14-.62.04-.76.19-.2.12.05.37.36.39-.13.51-.25.36-.31.54-.05.21-.02.48.02.51.11.16.39-.36.34-.17-.03.12.23.51.12.56-.15.07-.21 0-.36.08-.23.14-.37.31-.36.58 0 .1.1.17.13.24.12.33.31.47.48.45.02.16.12.57-.02.63-.39-.18-1.22-.23-1.64-.16-.09.02-.16-.02-.21-.07-.03.26-.04.6-.02.91.01.29.05.56.1.69.01.04.01.04 0 .06s0 .01 0 .03v.24c-.02.06-.04.1-.07.14s-.06.06-.1.07c-.02 0-.11.03-.2.01-.06 0-.12-.03-.17-.08a.845.845 0 0 1-.12-.27c0-.02-.01-.04-.01-.04-.04-.11-.06-.3-.08-.52a9.63 9.63 0 0 1 0-.76v-.08c0-.25.01-.62.31-.62.08 0 .16.02.23.06.03.02.05.03.07.05.06-.2-.12-.57-.11-.74.09-.04.34.16.55.06.44-.12.45-.61.32-.82-.1-.14-.07-.15-.16-.23-.8.05-.76.01-.64-.42.02-.07-.08-.11-.09-.19-.01-.12-.16-.17-.17-.34 0-.03.06-.07.07-.09.01-.12-.02-.4.03-.52.03-.06.09-.05.14-.06.14-.02.21 0 .37.02.18.02.27.03.33-.09.05-.12.02-.17-.07-.26-.12-.14-.47.02-.64-.05-.11-.05-.29-.26-.33-.39-.03-.11-.08-.33-.05-.43.04-.13.13-.15.1-.31-.03-.12-.16-.35-.27-.46-.1-.1-.2-.07-.28.04-.1.12-.21.32-.23.43-.03.15.06.17.11.31.03.1 0 .32-.03.44-.03.11-.2.34-.32.39-.17.08-.46-.05-.58.1-.08.1.02.27.08.39.04.08.14.16.25.21.08.03.18.07.24 0 .1-.12-.15-.33-.01-.31.06 0 .12-.01.15.05.05.12.03.39.05.52 0 .02.07.06.07.08-.01.17-.15.22-.16.35-.01.23.26.44.17.66-.08.21-.2-.04-.37.12-.09.08-.24.24-.34.4-.13.21-.19.74.24.85.21.08.52-.26.69-.1.03.03.06.07.08.11v.5l-.06.03c-.74-.05-1.83.19-2.41.41-.14-.06-.26-.6-.24-.76.21.03.48-.13.46-.32.14-.02.51-.15.53-.54 0-.27-.13-.41-.38-.54-.14-.07-.44.12-.58.05-.11-.05-.15-.29-.19-.42-.06-.18-.28-.49-.19-.65.19-.03.52.06.64-.12.1-.14.08-.3-.04-.42-.14-.14-.56-.07-.7-.21-.13-.13.03-.35-.11-.61-.05-.18-.05-.55-.21-.66-.17-.13-.3-.07-.43.1-.08.12-.05.45-.03.67.02.19-.16.22-.11.44.02.12.1.1.06.19-.14.23-.76.09-.86.44-.05.15.1.22.25.25.13.02.37-.2.46-.12.12.1.07.34.04.49-.05.24-.31.46-.24.69.04.15.41 0 .37.15-.11.12-.29.24-.41.34-.32.23-.26.75.1.96.16.08.3-.01.44-.09.12-.07.23-.12.29-.03.13.54.05.64.14.9-.23.08-.95.36-1.5.68-.13 0-.44-.15-.42-.27.21-.19.52-.29.6-.6.04-.15-.05-.48-.2-.5-.72-.44-.87.31-1.2.19-.15-.14-.53-.76-.9-1.01-.21-.13-.58-.26-.78-.12-.19.13-.12.48-.06.7.04.17.31.53.47.71.14.16.6.28.62.32.06.13-.29.25-.38.38-.06.1-.04.18-.05.31 0 .12.05.33.15.4.19.14.35.23.58.2.15-.03.36-.38.51-.39.14 0 .39.21.39.4-.2.23-.53.44-.84.83-.16.17-.22.34-.37.4-.17-.05-.29-.14-.38-.35 0-.09.34-.07.4-.15.11-.14.09-.41 0-.57-.1-.2-.37-.37-.6-.34-.27-.07-.31.39-.37.52-.16.05-.22-.19-.34-.32-.14-.14-.16-.37-.33-.49-.07-.06-.3.02-.38-.05-.15-.15-.36-.36-.67-.44-.22-.12-.22-.43-.48-.41-.07.01-.13.14-.11.24.02.12.13.22.16.3-.16.49.15.64.46 1 .07.14.1.35.24.42.08.05.32 0 .49.05.12.03.2.17.22.23.12.21-.36.2-.37.46-.01.17-.01.35.07.52.05.11.22.18.35.21.15.04.29.08.42-.01.13-.1.09-.45.24-.52.13-.06.44.27.42.42-.38.35-.73 1.03-.96 1.52-.12.26-.06.39-.16.58-.12 0-.43-.19-.51-.29-.03-.19.37-.25.39-.53.02-.19-.15-.42-.32-.52-.17-.11-.46-.13-.62-.01-.18.13-.11.4-.13.53-.12 0-.17-.32-.35-.44-.15-.11-.33-.18-.52-.26-.25-.12-.53-.21-.78-.25-.11-.02-.05.12-.08.24-.04.14-.08.33-.02.46.13.33.33.65.56.83.17.14.37.16.52.16 0 .05.05.14 0 .19-.14.15-.32.48-.17.67.07.11.39.25.52.25.12 0 .22-.07.3-.16.09-.12-.01-.34.13-.35.22-.02.56.15.82.39-.09.12.04 2.63.09 2.65Zm4.76-4.04c.01.35 0 .81.01 1.04-.41.09-.91-.46-1.02-.7-.05-.1-.21-.42-.14-.49.04-.08.33-.04.65-.06.08-.01.19-.01.28.01.16.02.2.04.21.2Zm8.87.24v.19c0 .3.01.55.01.74-.35.06-.67-.13-.88-.38-.15-.17-.28-.41-.25-.64.05-.08.62-.02.96-.02.12 0 .16-.01.17.11Zm-.1-1.65c.15.35.02.83.04 1.19.01.06-.85.03-1.13.03-.01-.08 0-.19.02-.28a.77.77 0 0 1 .12-.24c.13-.17.28-.35.46-.48.14-.1.33-.18.49-.21Zm.38.56c.02-.25 0-.51.05-.58.52-.1 1.19.81 1.06 1.14v.02l-1.03.02c-.09 0-.08-.42-.07-.6Zm.06 1.09s0-.08.01-.11c.01-.05.03-.05.11-.04.15.02.74-.02.88 0 .08.01-.02.37-.19.61-.19.3-.57.55-.82.45 0-.21 0-.58.01-.91Zm-4.73-1.78c-.13.06-.88.08-1.09-.11-.05-.16-.02-.25.05-.4.16-.33.52-.66.96-.66.11.13.07.84.08 1.17Zm.39.01c-.02-.31-.05-1.1 0-1.17.51-.14 1.25.93 1.08 1.34s-.62 0-.62 0c-.17 0-.44.02-.46-.16Zm-.14.61v-.02c0-.08 0-.1.09-.1.16.01.85.05 1.04.07.16.01-.48 1.05-1.17.99.02-.21.05-.64.04-.95Zm-.4 0 .03.71c0 .25-.08.32-.3.21-.46-.23-.83-.65-.79-1.17.04-.06.67.04.83.04.15.01.21.04.22.2Zm-4.28.36c-.11.04-.77-.03-1.17-.04a.633.633 0 0 1 .02-.47c.16-.34.6-.59 1.05-.59.11.13.09.77.1 1.1Zm.32-.25c-.02-.31-.03-.71.04-.83.38-.07 1.13.77 1.04 1l-.82.04c-.17.01-.23-.03-.25-.21Zm.13.68c-.01-.09 0-.1.09-.1.16.01.73-.06.91 0 .07.02.01.29-.12.57-.16.31-.59.65-.85.59.02-.23-.01-.72-.02-1.06Zm-.81 9.98c-.68.23-2.45-.14-3.17-.34-.44-.11-.82-.39-1.06-.72-.32-.44-.5-1.03-.64-1.55-.05-.17-.09-.42-.13-.58.35-.18.34-.53.25-.72.22-.12.33-.44.27-.69-.01-.13-.09-.21-.1-.34.09-.05.31-.15.4-.2.07.4.16.72.27 1.01.22.55.49.99.78 1.44.23.35.73 1.07 1.47 1.64.58.44 1.42.8 1.66.83.19.02.11.17-.01.21Zm-2.58-6.98c.72.03 1.55.06 2.34.06.21 0 .13.01 0 .12-.19.16-1.03 1.01-1.17 1.03-.07.01-.94-.8-1.27-1.06-.14-.11-.1-.16.1-.15Zm12.34 6.88c.04-.06.18-.06.24-.09.04-.02.09-.15.19-.19.16-.06.3-.09.33-.13.25-.13.32-.24.45-.38.15-.13.38-.28.57-.5.24-.24.36-.46.57-.77.27-.4.66-.82.8-1.27.15-.25.17-.61.42-.78.11-.08.14.19.28.22.1.02.17-.03.28-.02.05.01.09.04.07.09-.03.15-.17.1-.2.21-.02.1-.01.26.03.36.03.07.17.09.17.17 0 .1-.11.15-.12.25-.02.14-.02.25.04.39.04.08.22.12.21.21-.07.3-.1.45-.22.7-.17.4-.46.85-.81 1.16-.34.27-.73.56-1.16.65-.25.06-.67.07-.97.07-.39-.01-.7.01-1.06-.18-.09-.05-.16-.11-.12-.17Zm-.16-3.27c-.11-.07.28-.38.31-.41.18-.18.48-.47.68-.61.06-.05.1.01.15.06.11.1.22.21.33.33.06.08.57.49.42.71-.2-.01-1.73 0-1.88-.08Zm-.31-2.31c.21.13.65.65.68.85-.04.04-.18.14-.21.17-.15.14-.19.17-.49.43 0-.52-.02-.91.02-1.45Zm-.77-.46c.02.69.02 1.48.04 2.19 0 .15.02.15-.1.04-.41-.38-.84-.8-1.25-1.17-.13-.11-.11-.14.03-.24.39-.27.81-.59 1.2-.86.1-.07.08-.06.08.05Zm-2.22 1.49c.23-.2.28-.1.47.08.33.34.66.65.99.98.11.11.13.12-.05.12-.75.03-1.58-.15-2.32-.31-.02 0-.03-.06-.01-.08.25-.25.61-.53.93-.79Zm-.72 1.77c-.05-.06-.05-.14.03-.13.7.16 1.52.2 2.22.21.07.01-.06.12-.11.17-.28.22-.58.56-.77.79-.14.15-.11.14-.28.01-.33-.24-.68-.69-1.08-1.06Zm-.77 2.09c-.12-.18-.05-.96.01-1.44.02-.18.06-.32.05-.37 0-.05 1.12 1.05 1.38 1.31.03.02-.04.05-.06.07-.19.2-.37.4-.6.55-.21.13-.67.05-.78-.12Zm-2.02-1.02c.32-.18.56-.4.84-.62.18-.14.39-.41.58-.51.07-.04.01.84-.03 1.54-.02.43-.01.78-.06.8-.05.01-.17.02-.21 0-.13-.04-.17-.17-.32-.33-.23-.25-.6-.6-.8-.88Zm-.4.57c.09.09.17.2.28.28.15.13.39.14.26.42-.06.12-.29.14-.4.18-.19.06-.61.07-.78-.03-.11-.06.15-.2.13-.29-.07-.22-.3-.29-.05-.45.04-.02.14-.05.15-.06.19-.16.18-.32.4-.05Zm.98 3.59c-.1-.11-.25-.1-.35-.55-.05-.14-.14-.44-.03-.54.23-.21.56-.31.87-.36.47-.03.42.12.62.09.14-.02.22-.22.37-.24.23-.04.49-.04.7.06.21.11.56.47.61.66.05.33-.02.66-.27.92 0 0-2.51-.02-2.52-.04Zm5.08-4.38c-.02.31-.06.66-.07 1.02.03 0-.23.14-.46.15-.11.01-.2-.03-.25-.11-.02-.05-.1-.12-.16-.17-.11-.09-.1-.07 0-.16.21-.17.41-.37.56-.55.07-.08.12-.16.17-.24.16-.21.21-.13.21.07Zm.95.1s.07.06.1.09c.09.1.17.19.27.28.38.34.05.35-.27.61-.07.09-.09.2-.34.07-.07-.04-.03-.14-.03-.31 0-.2-.01-.41-.01-.61.01-.25.08-.4.27-.14Zm-2.43 1.31c-.08.09-.26.15-.38.1-.02-.01.02-.18.03-.2.03-.05.18-.12.2-.11.05.04.26.08.23.15-.01.04-.06.04-.09.06Zm-1.2-6.05c.11 0 2.08-.02 2.04.02-.2.21-.87.66-1.12.82-.05.03-.08.05-.14.02-.19-.08-.57-.55-.85-.77-.07-.05-.11-.08.07-.09Zm-4.24 3.57c.5-.01 1.11-.04 1.61-.05.25-.01.27-.04.07.13-.31.21-.63.48-.82.68-.11.11-.11.08-.23-.02-.22-.19-.43-.43-.65-.63-.13-.11-.16-.11.03-.11Zm1.14-1.61c.2.21 1.12.83.64.83-.56.01-1.12.02-1.7.04-.24 0-.17-.01-.01-.15.26-.24.54-.48.81-.72.14-.13.12-.15.25 0Zm-1.78-1.74c.43.34.79.76 1 .99.16.17.1.16-.05.36-.31.38-.75.8-1.1 1.02-.11.06.08-2.42.15-2.36Zm-1.74 1.17c.13-.13.25-.26.39-.41.08-.07.51-.55.54-.54-.02.42-.03 1.2-.04 1.67-.01.25-.02.18-.17.02l-.71-.74Zm-.42.68c.18.16.4.34.6.51.14.12.33.19.04.2-.58.02-1.14.03-1.69.01-.26-.01-.12-.08.04-.18.26-.16.46-.35.69-.57.14-.15.15-.11.32.03Zm-.77 1.38c.59-.01 1-.02 1.57.01.11 0 .11.08.06.15-.14.17-.67.62-.82.75-.06.06-.14.08-.19.08-.14.01-.24-.14-.35-.26-.16-.18-.28-.41-.4-.61-.07-.13.01-.12.13-.12Zm1.99.91c.02.21.05.64-.04.72-.06.06-.31.04-.48.03-.17 0-.24-.14-.18-.36.02-.07.1-.09.21-.18l.4-.26c.08-.05.08-.06.09.05Zm3.61-4.46c.08 0-.08.15-.14.21-.22.23-.43.49-.67.7a.09.09 0 0 1-.1 0c-.24-.19-.76-.52-1.01-.77-.08-.1-.08-.09.06-.11.37-.04 1.51-.06 1.86-.03Zm.69.43c.07.45.04 2.05-.02 2.01-.37-.26-.78-.7-1.11-1.03-.05-.06.81-.82 1-.98.04-.03.11-.05.13-.01Zm-3.63 3.58s.16-.03.22.02c.23.24.55.59.78.83.06.07.06.09 0 .16-.14.14-.32.28-.47.43-.07.07-.09.11-.19.1-.06-.01-.12-.02-.19-.03-.11 0-.16 0-.18-.04-.05-.1.01-.72 0-.86a.91.91 0 0 0 .03-.61Zm9.1-3.87c.66-.06 1.31-.05 1.97-.07.07 0 .19-.01.26 0 .02.01 0 .06-.01.08-.24.3-.98.94-1.25 1.13-.14.07-.93-.8-1.08-.96a.375.375 0 0 1-.07-.12c-.02-.06.11-.06.17-.07Zm2.83.43c.08-.06.08 1.43-.59 2.13-.05.05-.67-.7-.77-.81-.07-.09 1.09-1.08 1.36-1.31Zm-7.63.13c-.01-.13.05-.12.18-.03.24.17.74.61.92.76-.01.09-.09.15-.17.2-.22.14-.43.3-.64.45-.05.03-.1.07-.15.11-.12.08-.13-.04-.13-.14 0-.36.03-1.13 0-1.35Zm-8.43-.26c-.07-.15.09-.35.23-.21.4.37.93.74 1.32 1.15.08.08.06.15-.03.21-.24.19-.5.49-.76.61-.2.09-.38-.3-.4-.53-.01-.11-.32-1.1-.37-1.23Zm13.32 3.66c.26-.01.5-.01.7.01.17.01.32.05.51.05.02 0 .09.04.1.06.02.03-.04.09-.05.12-.07.14-.41.54-.54.69-.09.15-.62-.62-.75-.72-.14-.17-.21-.19.03-.21Zm-12.5-7.42.59.55c.09.11.08.1-.04.2-.37.32-.7.61-1.06.93-.03.02-.12.1-.11.06-.27-.13.08-1.4.42-1.74.1-.1.12-.08.2 0Zm1.25 1.23c.33.31.79.65.99 1.06-.76.12-1.67.13-2.41.03.03-.04.07-.07.1-.11.27-.35.59-.71 1.02-.97.15-.09.17-.12.31-.01Zm5.63-.7c.1.09.15.06.2.09.02.25-.07.83-.06 1.18.01.42-.01.36-.26.04-.19-.26-.44-.47-.65-.65.25-.17.61-.52.77-.66Zm-1.33 1.19.22.26.35.34.17.13-1.42.04-.05-.02-.05-.06.12-.12.66-.57Zm3.7-.07c.21.14 1.11 1.01 1.12 1-.02.03-1.88-.05-2.16-.05.1-.22 1.01-.96 1.04-.95Zm-4.56-4.63s.13.13.13.18c-.01.17-.59.66-.72.75-.03.02-.07.01-.08-.02-.01-.22.09-.61-.32-.91-.02-.01-.12-.1-.15-.11 0-.14-.07-.49.05-.55.14-.06.18-.12.27-.07.24.15.55.5.81.72Zm.68.69c.19.1.41.35.62.54-.08.09-.15.38-.13.57.01.08-.38.01-.55.07-.28-.02-.43 0-.7-.03 0-.03-.18-.24-.21-.27 0-.06.07-.11.12-.16.05-.05.84-.71.85-.71Zm-.46 1.8s.09.01.19 0c.12 0 .84-.02.86.01.03.08.11.41.33.6.01.02-.42.43-.61.51-.06.03-.1 0-.14-.04-.34-.35-.58-.57-.6-.6.01-.01.01-.39-.03-.48Zm-4.55-.13c.26-.01.78.01 1.05 0-.09.2-.09.46-.06.67.02.08-.04.13-.14.14-.09 0-.11-.08-.19-.16-.15-.14-.29-.29-.45-.44-.04-.03-.29-.21-.2-.21Zm1.13-1.64c.2.19.43.39.63.58-.12.07-.28.22-.35.36-.36.02-.67-.01-1.03 0 .1-.32.35-.67.74-.94Zm1.2-1.24s.04.07.04.17v-.41c.02-.41.1-.72.21-.8l.41-.16c.06-.02.08-.03.09 0s0 .02-.01.04-.03.04-.03.08c-.05.19-.07.57-.05.95.01.41.06.82.12 1.02s.01.04.02.05.02.04-.02.09-.02.02-.03.03-.02.02-.03.04c-.02.04-.04.08-.07.11s-.06.07-.1.09c-.02.02-.08.02-.14.01-.07 0-.14-.02-.18-.04-.1-.04-.11-.22-.11-.24-.03-.17-.05-.34-.07-.51-.23.16-.31.31-.38.49-.13 0-.35-.14-.42-.18-.1-.22.58-.71.73-.81Zm4 .15c.03.19.05.53 0 .68-.1.06-.17.14-.26.25-.05.06-.06.01-.13-.07-.1-.1-.23-.21-.33-.33.2-.16.44-.46.66-.6.13-.07.05-.02.06.06Zm-1.21.1c-.11-.09-.64-.52-.84-.7-.05-.05-.07-.06.09-.1.32-.1 1.23-.48 2.03-.4.21 0-1.03.97-1.28 1.2Zm5.78-.14c.07.16.08.66-.04.77-.14.14-.13.18-.14.45-.06 0-.09.48-.01.51-.04.07-.27-.17-.33-.23-.11-.11-.29-.29-.45-.37-.02-.01-.16-.13-.17-.14-.01-.01 1.08-1.12 1.14-.99Zm-1.59 1.46c.1.06.88.7.98.8 0 0-.81-.03-1.34-.03.04-.19-.06-.44-.04-.45.11-.06.39-.33.41-.33Zm-1.51-2.61c.15-.01.35.03.51 0 .11-.02.32.01.56.05.67.13 1.54.5 1.51.62-.08.07-1.03.92-1.09.92-.06-.01-.09-.07-.38-.34l-.57-.55c-.16-.16-.45-.36-.59-.55-.09-.11-.14-.13.05-.15Zm-.39 5.2c.01-.09.1-.02.33-.12.23.28.08.1.67.6-.08.23-.92.89-.92.87-.04-.24-.1-1.13-.08-1.35Zm1.32-1.08c.15.03 1.24-.04 1.25-.04.01.02-.05.08-.1.42-.07.09-.83.69-.92.72-.01.04-.57-.37-.63-.5.3-.31.37-.49.4-.6Zm-4.43 1.31c.08.02.15.1.22.15.04.03.13.06.12.1-.02.07-.12.12-.17.16-.31.22-.65.5-.97.69-.05.02-.13.06-.18.06-.04-.01-.06-.05-.07-.09 0-.11.01-.28 0-.35 0-.04.03-.06.08-.07.12-.03.4-.12.57-.24.25-.18.37-.43.4-.42Zm8.08-2.43c.14-.13.52-.52.65-.53.41-.05.81.65.88.82.06.14-.12.19-.31.2-.25.01-.73.04-.76 0-.25-.38-.53-.44-.47-.5Zm2.11 1.36c-.01.2-1.18 1.11-1.26 1.1-.05-.01-.1-.06-.07-.12.03-.1.22-.49.03-1.3 0-.06 1.01.02 1.12.04.11.03.19.18.18.28Zm.41 2.68c-.11-.33-1.23-1.13-1.21-1.15.16-.11 1-.8 1.03-.71.16.48.21 1.18.27 1.71.02.14.06.15-.09.15Zm-1.7-.64c.24.06 1.01.85 1.02.88-.52.05-2.17.03-2.16.06.12-.12 1.08-1.01 1.14-.95Zm-3.2-1.13c.18.69.81.93.83.94.05.1-.05.6-.04.67-.17-.02-1.36-1.12-1.36-1.14.06-.14.44-.41.57-.47Zm-2.03-3.44v-.59c.16.16.38.4.54.56.11.1.23.2.23.31.01.09-.07.23-.16.23-.15-.24-.36-.37-.61-.51Zm3.62 5.07c0-.11.04-.36.03-.47.32.08.59-.07 1.09-.42-.2.27-.77.74-1.12.88Z" class="cls-2"/><path d="M26.23 17.29c.44.23.98.77.95 1.68-.02.89-.71 1.79-1.73 1.77-.48-.02-.96-.32-1.24-.6-.49-.5-.57-1.22-.37-1.87.15-.47.42-.63.74-.92-.12-.37-.1-.94.15-1.22.15-.16.36-.2.59-.22 0 .1-.02.19-.03.26 0-.02 0-.04-.01-.04-.6.4-.46 1.15-.3 1.01.11-.09.66-.12.88-.04.09-.14.17-.66 0-.74-.06-.03-.04.12-.09.26v-.01l.05-.22c.03-.04.05-.12.06-.23.1.09.19.19.24.29.09.19.17.69.08.86Zm-.97-.64v-.13.13Zm-4.64-1.59.02.02c-.02-.06-.04-.14-.05-.24-.07.05-.14.1-.2.17-.25.27-.2.73-.18 1.08-.32.27-.63.55-.77 1.02-.21.65-.11 1.36.39 1.86.28.28.68.53 1.15.54 1.02.02 1.86-.92 1.89-1.82.02-.91-.58-1.35-1.02-1.58.1-.17.04-.7-.06-.88-.1-.2-.33-.4-.55-.48.02.08.03.16.05.21.02.05 0 .03 0 .08.01.07.01.2 0 .23-.02.07-.05.12-.08.15.17-.13.04-.46.12-.41.15.07.22.77.13.93-.36-.12-.75-.03-.79-.01-.13.04-.19-.92-.04-.85Zm-4.31 1.26c-.11.03-.14.25-.1.37.02.06.01.17.07.19.21.07.56.08.75-.06.09-.15.13-.46-.02-.53-.09-.04-.13.12-.22.22a.42.42 0 0 0 .09-.14c.02-.03.04-.05.06-.07.05-.05.02-.04 0-.12-.04-.12-.07-.31-.09-.54.36.05.72.45.71.79-.01.39-.09.38-.22.51.44.22 1.17.88 1.15 1.79-.02.9-.87 1.79-1.89 1.77a1.844 1.844 0 0 1-1.8-1.89c.02-.8.54-1.47 1.26-1.71-.12-.14-.21-.13-.19-.51.01-.23.17-.44.39-.58.01.16.04.33.07.5v.02l-.01-.01Zm.33.25c-.07 0-.18-.02-.22-.04-.02 0-.03-.02-.04-.03.03.04.09.07.2.07h.06Zm4.32.93c-.13.06-.88.08-1.09-.11-.05-.16-.02-.25.05-.4.16-.33.52-.66.96-.66.11.13.07.84.08 1.17Zm.39.01c-.02-.31-.05-1.1 0-1.17.51-.14 1.25.93 1.08 1.34s-.62 0-.62 0c-.17 0-.44.02-.46-.16Zm-.14.61v-.02c0-.08 0-.1.09-.1.16.01.85.05 1.04.07.16.01-.48 1.05-1.17.99.02-.21.05-.64.04-.95Zm-.4 0 .03.71c0 .25-.08.32-.3.21-.46-.23-.83-.65-.79-1.17.04-.06.67.04.83.04.15.01.21.04.22.2Zm-4.33.92c-.01-.16-.05-.18-.21-.2a.888.888 0 0 0-.28-.01c-.33.02-.61-.02-.65.06-.07.07.09.39.14.49.11.24.61.79 1.02.7-.01-.22 0-.69-.01-1.04Zm.05-.56c-.01-.33.01-.97-.1-1.1-.45 0-.88.25-1.05.59-.07.14-.07.31-.02.47.4.01 1.06.08 1.17.04Zm.32-.25c.02.18.08.22.25.21l.82-.04c.09-.23-.66-1.07-1.04-1-.07.12-.06.53-.04.83Zm.13.68c.01.34.04.82.02 1.06.26.06.69-.28.85-.59.13-.27.19-.55.12-.57-.17-.06-.74.01-.91 0-.09 0-.1.01-.09.1Zm8.37.37c0-.13-.05-.11-.17-.11-.34 0-.9-.06-.96.02-.03.23.1.47.25.64.21.24.54.44.88.38 0-.19-.02-.44-.01-.74v-.19Zm-.1-1.65c-.16.03-.35.11-.49.21-.17.13-.33.31-.46.48a.77.77 0 0 0-.12.24c-.02.09-.03.2-.02.28.27 0 1.14.03 1.13-.03-.02-.36.11-.84-.04-1.19Zm.38.56c-.01.18-.02.6.07.6l1.03-.02v-.02c.14-.33-.54-1.24-1.06-1.14-.05.07-.03.33-.05.58Zm.06 1.09c-.02.33-.01.7-.01.91.25.1.63-.15.82-.45.17-.24.27-.6.19-.61-.14-.02-.73.02-.88 0-.07 0-.09 0-.11.04 0 .03 0 .08-.01.11Z" class="cls-2"/><path d="M26.25 17.29c.25.13.52.36.71.7.15.26.24.59.23.99-.01.47-.21.95-.54 1.29-.3.31-.72.51-1.21.5-.22 0-.44-.08-.64-.17-.24-.12-.45-.28-.61-.43-.24-.24-.38-.54-.44-.85-.07-.34-.04-.7.07-1.04.13-.4.34-.58.61-.8s.09-.07.13-.11a1.7 1.7 0 0 1-.06-.68c.03-.21.1-.41.22-.55.08-.09.18-.14.29-.17.1-.03.2-.04.32-.05v.04c-.11 0-.21.02-.31.05-.1.03-.2.08-.28.16-.12.13-.18.32-.21.53-.03.23 0 .48.06.68s0 .02 0 .02c-.05.04-.1.08-.14.12-.26.22-.47.39-.59.79-.1.34-.13.69-.07 1.02.06.31.2.59.43.83.15.15.36.31.6.42.2.1.41.16.63.17.48 0 .88-.19 1.18-.49.33-.33.52-.8.53-1.26.01-.39-.08-.71-.22-.97-.19-.34-.47-.56-.71-.69h-.02v-.02c.04-.07.04-.22.03-.37-.02-.18-.06-.38-.11-.48-.05-.1-.13-.2-.23-.28v-.04c.11.09.2.2.26.31.05.11.1.31.12.49a1 1 0 0 1-.03.37Zm-8.88-.36c.25.14.6.41.84.79.18.28.31.62.3 1.01-.01.46-.24.93-.61 1.27-.34.32-.81.53-1.31.52a1.94 1.94 0 0 1-1.31-.58c-.33-.35-.53-.82-.51-1.33.01-.4.14-.77.36-1.07.22-.3.53-.53.88-.65l-.05-.05c-.09-.09-.15-.14-.13-.45 0-.19.12-.36.27-.49.04-.04.09-.07.14-.11v.04l-.12.09c-.14.13-.25.29-.26.47-.02.29.04.34.12.42.02.02.05.04.07.07l.02.02h-.03c-.36.13-.67.35-.89.65-.22.29-.35.65-.36 1.05-.02.5.18.96.5 1.3.32.34.78.56 1.28.57.49 0 .94-.2 1.28-.51.36-.33.58-.79.59-1.24 0-.38-.11-.71-.29-.99-.25-.38-.6-.66-.85-.79h-.02l.02-.03c.02-.02.05-.04.07-.06.09-.08.14-.13.15-.44v-.07c-.02-.17-.13-.34-.27-.47a.75.75 0 0 0-.42-.22v-.04c.16.02.32.11.45.23.15.14.26.32.28.5v.08c0 .33-.07.38-.17.46-.01.01-.03.03-.05.04Zm4.49-.83c.22.11.47.28.67.53.2.26.35.6.34 1.06-.02.47-.25.95-.62 1.3-.34.33-.8.54-1.29.53-.22 0-.42-.06-.6-.15-.21-.1-.4-.24-.56-.4-.24-.24-.39-.54-.46-.85-.07-.33-.04-.69.07-1.03.14-.47.46-.75.77-1.02V16c-.03-.34-.05-.75.19-1.01.07-.07.14-.13.21-.18v.04c-.07.04-.13.1-.19.16-.23.25-.2.66-.18.99s0 .08 0 .08v.01c-.31.27-.63.55-.77 1.01-.11.33-.14.68-.07 1.01.06.31.21.6.45.83.15.15.34.29.55.39.18.08.38.14.59.14.49 0 .93-.2 1.27-.52.36-.34.59-.82.6-1.28 0-.45-.13-.78-.33-1.03s-.46-.42-.67-.53h-.02v-.03c.05-.08.06-.23.05-.4-.01-.18-.05-.38-.11-.47-.07-.14-.2-.27-.34-.37-.06-.04-.13-.07-.19-.1v-.04c.07.03.15.06.22.11.15.1.28.25.35.39.06.1.1.3.11.49.01.16 0 .31-.04.4Z" class="cls-1"/><path d="M16.48 19.04c-.01-.16-.05-.18-.21-.2a.888.888 0 0 0-.28-.01c-.33.02-.61-.02-.65.06-.07.07.09.39.14.49.11.24.61.79 1.02.7-.01-.22 0-.69-.01-1.04Zm8.87.24c0-.13-.05-.11-.17-.11-.34 0-.9-.06-.96.02-.03.23.1.47.25.64.21.24.54.44.88.38 0-.19-.02-.44-.01-.74v-.19Zm-.1-1.65c-.16.03-.35.11-.49.21-.17.13-.33.31-.46.48a.77.77 0 0 0-.12.24c-.02.09-.03.2-.02.28.27 0 1.14.03 1.13-.03-.02-.36.11-.84-.04-1.19Zm.38.56c-.01.18-.02.6.07.6l1.03-.02v-.02c.14-.33-.54-1.24-1.06-1.14-.05.07-.03.33-.05.58Zm.06 1.09c-.02.33-.01.7-.01.91.25.1.63-.15.82-.45.17-.24.27-.6.19-.61-.14-.02-.73.02-.88 0-.07 0-.09 0-.11.04 0 .03 0 .08-.01.11Zm-4.73-1.78c-.01-.33.03-1.04-.08-1.17-.44 0-.79.34-.96.66-.07.14-.1.23-.05.4.2.19.96.17 1.09.11Zm.39.01c-.02-.31-.05-1.1 0-1.17.51-.14 1.25.93 1.08 1.34s-.62 0-.62 0c-.17 0-.44.02-.46-.16Zm-.14.61c.01.31-.02.73-.04.95.69.06 1.33-.98 1.17-.99-.18-.02-.87-.06-1.04-.07-.09 0-.09.02-.09.1v.02Zm-.4 0 .03.71c0 .25-.08.32-.3.21-.46-.23-.83-.65-.79-1.17.04-.06.67.04.83.04.15.01.21.04.22.2Zm-4.28.36c-.01-.33.01-.97-.1-1.1-.45 0-.88.25-1.05.59-.07.14-.07.31-.02.47.4.01 1.06.08 1.17.04Zm.32-.25c.02.18.08.22.25.21l.82-.04c.09-.23-.66-1.07-1.04-1-.07.12-.06.53-.04.83Zm.13.68c.01.34.04.82.02 1.06.26.06.69-.28.85-.59.13-.27.19-.55.12-.57-.17-.06-.74.01-.91 0-.09 0-.1.01-.09.1Z" class="cls-1"/><path d="M25.28 16.13c-.6.4-.46 1.15-.3 1.01.11-.09.66-.12.88-.04.09-.14.17-.66 0-.74-.11-.05.04.5-.46.47-.31-.02-.06-.64-.13-.69Zm-4.66-1.07c.07.05.05.4.35.41.5.03.24-.53.36-.47.15.07.22.77.13.93-.36-.12-.75-.03-.79-.01-.13.04-.19-.92-.04-.85Zm-4.31 1.26c-.11.03-.14.25-.1.37.02.06.01.17.07.19.21.07.56.08.75-.06.09-.15.13-.46-.02-.53-.13-.06-.15.33-.43.28-.31-.01-.2-.2-.27-.25Z" class="cls-3"/><path d="M25.28 16.13c-.6.4-.46 1.15-.3 1.01.11-.09.66-.12.88-.04.09-.14.17-.66 0-.74-.11-.05.04.5-.46.47-.31-.02-.06-.64-.13-.69Zm-4.66-1.07c.07.05.05.4.35.41.5.03.24-.53.36-.47.15.07.22.77.13.93-.36-.12-.75-.03-.79-.01-.13.04-.19-.92-.04-.85Zm-4.31 1.26c-.11.03-.14.25-.1.37.02.06.01.17.07.19.21.07.56.08.75-.06.09-.15.13-.46-.02-.53-.13-.06-.15.33-.43.28-.31-.01-.2-.2-.27-.25Z" class="cls-3"/><path d="m16.34 38.04.44-1.48c.01-.06.02-.11.02-.13s-.01-.04-.04-.06a.278.278 0 0 0-.13-.05l-.28-.08.07-.23c.2.05.39.08.54.09.16.02.32-.02.47-.07l.11.03-.61 2.1c-.02.11-.04.17-.04.23 0 .04.02.08.04.11.03.01.1.05.18.07.04 0 .12.03.21.05l-.06.2-1.53-.43.06-.2c.09.03.16.04.23.06.07.01.13.03.17.01.03 0 .05-.02.07-.05.03-.04.04-.08.06-.17ZM36.38 9.56c-.05.02-.07.05-.1.1-.02.05-.03.09-.03.15.01.06.02.11.05.14.04.06.1.1.18.11.09.01.16 0 .24-.05.03-.03.07-.07.08-.12.03-.05.04-.1.04-.13a.367.367 0 0 0-.06-.14.265.265 0 0 0-.19-.11c-.08-.02-.14 0-.2.05Zm.3 11.72 2.08.15c.07.02.12.01.15-.03.03-.03.04-.12.05-.23v-.14l.27.02-.11 1.58-.26-.03v-.15c.01-.11.01-.18-.01-.22 0-.04-.06-.06-.13-.07l-2.11-.15c-.05 0-.07.01-.09.01-.04.01-.06.03-.06.08a.53.53 0 0 0-.04.16c.01.05.01.1 0 .16l-.23-.02.11-1.57h.23c0 .08 0 .13-.02.16.01.1.01.17.03.22.03.05.07.06.13.06h.01ZM4.44 22.32l-2.33-.81v-.32L4.55 20c.08-.03.13-.09.14-.14.02-.06.02-.13.02-.23h.26L5.06 21l-.26.02v-.13c-.01-.12-.05-.18-.1-.18a.3.3 0 0 1-.08.04l-.41.2.05 1.01c.16.06.29.09.38.09.16 0 .23-.14.21-.41l.25-.02.07 1.15h-.25c-.03-.18-.2-.35-.48-.46Zm4.19-12.5v.02c.06.04.08.09.08.12.02.04 0 .07-.03.12-.04.02-.1.11-.19.19l.14.15L9.8 9.36l-.15-.17c-.05.04-.11.09-.12.13-.08.05-.14.09-.18.1-.03.01-.1-.01-.13-.05l-.69-.75a.25.25 0 0 1 .11-.1c.15-.15.29-.23.4-.22.12.02.22.06.32.16.1.09.22.18.34.3.11.11.24.18.36.19.07.01.16-.01.25-.03.08-.05.15-.09.23-.14.15-.13.23-.29.24-.47.02-.16-.05-.35-.21-.52l-.14.12c.08.11.13.18.15.26.01.07.01.12-.01.15-.06.04-.12.04-.19 0-.01-.02-.1-.07-.2-.14-.12-.08-.21-.15-.33-.19a.623.623 0 0 0-.33-.07c-.12 0-.26.03-.39.11.11-.1.18-.22.23-.31.06-.09.08-.21.09-.3a.704.704 0 0 0-.04-.29c-.03-.07-.07-.16-.12-.23-.1-.09-.2-.16-.33-.18a.752.752 0 0 0-.42.01c-.15.04-.31.14-.44.26l-1.4 1.3.15.18.12-.11c.07-.07.14-.11.18-.11s.07.01.13.06L8.66 9.8Zm-.27-1.34-.58-.63c-.05-.06-.07-.11-.05-.16 0-.05.04-.12.11-.18.02-.01.04-.02.08-.05.02-.02.05-.04.07-.07.14-.1.27-.16.37-.13.11.01.23.07.32.17.12.12.16.26.18.39 0 .12-.08.26-.22.4l-.29.27Zm2.56-1.08-.4-2.4.26-.17 2.26 1.54c.07.05.14.06.19.06.06-.01.13-.04.22-.09l.13.2-1.2.76-.14-.2.12-.07c.1-.07.13-.11.1-.17-.01-.02-.04-.03-.05-.04l-.4-.27-.86.55c.02.15.06.27.09.36.09.13.25.12.47-.02l.13.19-.97.64-.13-.21c.16-.13.24-.36.17-.66Zm-.02-1.67.19 1.06.69-.44-.88-.61ZM2.95 21.55l1.02.34-.05-.81-.97.47Zm-.33-2.95c-.15.09-.26.2-.28.38l-.21-.04.16-.97 2.12-1.22-1.19-.22c-.16-.03-.29-.01-.36.05-.06.06-.12.16-.15.31l-.2-.03.2-1.13.21.03c-.01.13 0 .25.04.3.02.09.08.13.12.16.08.02.16.06.27.07l2.19.39-.03.25-2.6 1.49 1.5.27c.17.03.32.01.4-.06.07-.07.11-.17.14-.32l.26.05L5 19.49l-.26-.05c.02-.08.02-.17.02-.24a.29.29 0 0 0-.09-.16c-.03-.04-.13-.08-.25-.1l-1.81-.33Zm.74-3.72 2.01.77c.05.02.07.04.08.06.02.02.02.05.02.1-.02.05-.05.14-.1.28l.25.08.55-1.4-.24-.1c-.05.11-.08.2-.1.25-.03.04-.06.07-.08.09-.01 0-.07 0-.11-.03l-.58-.22-.19-.46 1.03-.17c.07-.02.13-.02.17-.01.04.01.05.05.04.08-.01.05-.05.13-.08.27l.23.08.53-1.34-.24-.09c-.02.06-.06.11-.08.14-.03.02-.05.05-.06.06-.04.02-.06.02-.11.03l-1.73.34-.23-.46c-.16-.38-.19-.68-.12-.91l-.19-.08-.5 1.26.2.09c.05-.13.1-.24.14-.28.04-.06.09-.07.12-.06.04.01.08.06.12.12l.61 1.26-1.09-.42s-.08-.06-.09-.09c0-.06.01-.13.05-.25l.03-.09-.2-.07-.55 1.42.2.07c.05-.12.1-.22.11-.26.04-.05.06-.09.08-.09.02-.01.04 0 .09.03Zm3.18-2.59-1.39-2.02.17-.26 2.7.44c.08.02.15 0 .19-.02.05-.04.11-.09.15-.17l.23.13-.76 1.19-.23-.13.07-.11c.06-.1.08-.17.03-.19-.02-.01-.05-.01-.07-.03l-.48-.07-.54.86c.08.14.16.23.24.29.15.09.29 0 .42-.22l.22.13-.62.97-.2-.12c.1-.18.06-.42-.12-.67Zm-.74-1.5.63.88.43-.69-1.06-.19Zm27.96.5 1.71-1.2c.05-.05.08-.08.08-.13a.6.6 0 0 0-.1-.21l-.09-.12.21-.14.92 1.28-.2.14-.09-.12c-.06-.08-.11-.14-.16-.15-.02-.02-.08-.02-.13.02l-1.73 1.23s-.04.06-.06.08c-.01.02-.02.05.02.09.01.04.03.08.07.14.03.04.07.07.1.12l-.19.13-.92-1.28.19-.12c.03.05.07.09.07.11.07.09.12.13.16.16.05.02.1 0 .14-.04Zm6.05 10.33c.08.01.13.03.19.09.05.07.07.14.07.22 0 .05-.03.1-.05.14-.03.04-.06.06-.11.08-.06.04-.11.04-.15.04-.09-.01-.14-.05-.2-.11a.252.252 0 0 1-.07-.19c0-.05.02-.09.04-.14.04-.04.08-.08.12-.1.06-.01.11-.02.16-.02Zm-1.47-3.43a.836.836 0 0 1 .77.47c.09.15.13.33.14.49.01.27-.03.51-.18.73l.23.19v.17l-1.04.13-.03-.18c.2-.1.37-.2.49-.32.11-.11.2-.24.27-.37.04-.12.06-.24.05-.37 0-.14-.05-.28-.14-.38a.472.472 0 0 0-.32-.14c-.1.01-.19.08-.28.16-.04.06-.08.2-.11.46-.04.24-.06.44-.11.6-.04.17-.13.33-.26.47-.13.15-.34.24-.58.25-.05.02-.08.02-.12 0a.799.799 0 0 1-.33-.06.823.823 0 0 1-.27-.2c-.09-.09-.15-.2-.2-.31a1.29 1.29 0 0 1-.08-.39c-.01-.14 0-.28.04-.42.03-.14.11-.29.19-.42l-.28-.23-.02-.18 1.14-.09v.18c-.13.06-.28.15-.39.25-.11.1-.2.18-.29.31-.06.09-.11.18-.14.3-.02.1-.05.2-.04.3 0 .1.04.19.07.27.05.08.11.15.17.19.08.03.16.07.27.06.05 0 .09-.03.12-.03.1-.02.19-.15.24-.37.03-.22.08-.45.13-.67.03-.22.12-.42.26-.58.12-.16.36-.27.64-.28ZM36 15.5l1.97-.54c.05-.02.08-.03.1-.06.03-.02.04-.04.04-.08-.01-.02-.01-.07-.02-.13-.03-.06-.04-.11-.06-.2l.23-.07.76 2.58-1.02.33-.06-.19c.11-.06.22-.14.3-.2.08-.07.14-.15.2-.24.04-.09.06-.2.07-.33 0-.13-.01-.28-.06-.43-.03-.1-.07-.18-.1-.24-.06-.04-.11-.07-.2-.04l-.81.23s0 .06.02.09a.6.6 0 0 0 .13.25c.07.07.15.1.26.13.08.01.18.01.3-.03l.06.2-1.33.39-.06-.22c.09-.02.19-.08.27-.15.08-.06.13-.14.15-.25.03-.1.02-.22-.03-.35l-.9.25s-.09.03-.11.07c-.02.01-.02.04-.02.1 0 .05.02.11.05.2.05.22.12.39.23.5.09.11.21.18.34.23.14.03.32.07.5.08l.05.19-1.02.24-.76-2.61.26-.07c.01.07.03.14.03.17.03.08.07.15.1.19.04.02.08.03.17.01Zm1.02-3.07-1.97.9a.17.17 0 0 1-.12.01c-.02 0-.06-.04-.09-.07-.02-.06-.06-.16-.13-.29l-.24.1.7 1.48.24-.1c-.02-.05-.06-.09-.07-.11a.68.68 0 0 1-.07-.25c0-.05.02-.09.07-.11l2.01-.91c.06-.02.13 0 .16.08.05.1.05.19.04.29a.61.61 0 0 1-.11.28c-.06.1-.13.18-.2.25s-.15.12-.24.18l.08.16.97-.49-1.11-2.42-1.04.4.09.17c.11-.04.25-.06.4-.06.14-.02.29.01.42.05.11.06.2.14.27.27.05.09.04.15-.05.19Zm-3.99-4.64c-.2.2-.32.42-.31.63 0 .22.07.42.17.61l.33.59c.12.19.13.35.07.43-.03.03-.05.06-.09.1-.07.05-.15.09-.23.11-.07.01-.17 0-.26-.03-.08-.04-.16-.09-.24-.16-.06-.07-.11-.15-.17-.27-.03-.08-.06-.19-.07-.32a1.1 1.1 0 0 1 .02-.4c.02-.14.07-.3.14-.45l-.13-.13-.8.8.13.13h.36c.01.15.06.3.12.43.07.13.14.26.24.35.1.1.2.18.32.25.1.06.23.09.36.11a.798.798 0 0 0 .64-.18c.02 0 .05-.02.08-.06.18-.17.3-.37.3-.56 0-.18-.02-.38-.11-.53a4.13 4.13 0 0 0-.31-.53c-.13-.2-.2-.35-.2-.42 0-.12.03-.23.1-.3.08-.08.2-.11.33-.09.14.01.27.08.36.19.1.08.14.2.19.33.05.11.06.28.03.44-.01.16-.06.35-.16.53l.14.14.73-.77-.12-.12h-.3a1.11 1.11 0 0 0-.34-.69c-.12-.13-.26-.23-.42-.29-.15-.07-.32-.09-.48-.07-.15.03-.3.1-.42.19Zm-6.45-2.2c-.03.08-.07.12-.11.12-.06 0-.13 0-.23-.05-.03-.01-.07-.05-.15-.07l-.09.23 2.49 1.12.48-.94-.17-.07c-.14.13-.27.24-.39.32a.67.67 0 0 1-.4.11c-.14 0-.32-.05-.53-.14-.08-.04-.14-.07-.19-.1-.03-.03-.06-.05-.06-.07a.33.33 0 0 1 0-.14l.4-.84c.13.06.23.13.29.2.06.08.09.18.09.29.02.09-.01.21-.06.3l.23.1.55-1.27-.19-.08c-.05.1-.12.17-.19.24a.46.46 0 0 1-.26.1c-.09.02-.18-.01-.27-.04-.04-.02-.07-.04-.1-.04l.36-.77c.04-.09.08-.12.15-.13.08 0 .15.03.26.07.16.06.28.13.38.23.08.09.15.18.19.28.03.09.05.18.05.3s-.01.23-.02.36l.18.07.41-.96-2.48-1.1-.1.22c.08.04.14.06.2.08.04.03.09.06.11.08.03.02.04.04.04.08 0 .02 0 .06-.02.11l-.85 1.83Zm2.84 1.46 1.19-1.66c.05-.06.05-.11.04-.14-.01-.04-.06-.08-.16-.15l-.13-.09.15-.18 1.57 1.08c.16.12.28.24.35.38.07.12.11.27.11.4s-.05.25-.12.36a.58.58 0 0 1-.19.16c-.09.05-.17.08-.27.11-.11 0-.22 0-.33-.04-.1-.01-.24-.07-.36-.14.12.11.18.23.2.35.02.11.02.24 0 .33-.02.11-.07.23-.12.37-.06.11-.08.19-.09.22-.03.07-.02.14.02.18.05.02.09 0 .16-.02.06-.02.12-.09.21-.2l.16.11c-.14.2-.31.31-.48.32a.686.686 0 0 1-.51-.12.769.769 0 0 1-.18-.18.649.649 0 0 1-.09-.24c0-.11.04-.25.11-.38.09-.14.16-.28.25-.4.06-.11.09-.23.07-.35-.01-.1-.1-.2-.29-.34-.02-.02-.06-.04-.13-.08l-.58.83s-.04.09-.03.14c.03.02.07.07.14.14.04.01.09.05.16.09l-.14.18-1.29-.91.12-.17c.11.08.19.12.23.15.06.02.1.04.13.02s.08-.04.11-.1h.01Zm1.27-.54.33.22c.16.1.31.14.43.12.13-.03.25-.12.34-.25a.59.59 0 0 0 .12-.35c0-.11-.07-.23-.23-.34-.02-.01-.04-.03-.08-.05-.03-.02-.05-.05-.07-.07-.06-.05-.13-.06-.19-.07-.06 0-.11.02-.15.09l-.49.7Zm-15.9-1.47-.44-1.52c-.01-.06-.04-.1-.06-.13h-.11s-.13.02-.28.05l-.06-.2 1.48-.41.06.2-.17.04c-.07.03-.13.05-.15.09-.03.03-.03.08 0 .15l.4 1.42c.05.15.11.3.16.39.09.09.17.15.3.16.12.03.27.02.45-.03.22-.06.36-.17.43-.35.06-.15.08-.35.02-.56l-.34-1.16a.738.738 0 0 0-.11-.25c-.05-.04-.1-.08-.17-.1-.07 0-.15 0-.27.03l-.06-.21 1.15-.32.06.22c-.11.02-.18.07-.25.12-.06.04-.1.11-.11.19-.01.08 0 .17.03.3l.34 1.2c.05.13.05.29.03.42-.01.13-.04.25-.11.36-.08.1-.17.2-.29.29-.12.07-.27.13-.41.18-.41.11-.75.13-.98.04-.27-.07-.44-.29-.53-.64Zm-.21-2.58c.01.07.06.13.13.18.06.05.14.05.21.04.06-.03.12-.06.15-.13.04-.08.07-.15.04-.25a.21.21 0 0 0-.08-.11c-.04-.05-.09-.07-.13-.09-.05-.01-.1 0-.13 0-.09.03-.14.07-.17.14-.05.07-.05.14-.02.22Zm.82-.23c.02.07.06.13.13.18.07.05.15.05.24.03.03-.01.07-.04.1-.07.04-.04.06-.07.08-.13.01-.05.01-.11 0-.15a.352.352 0 0 0-.13-.18c-.09-.03-.14-.05-.23-.02-.08.02-.14.05-.16.12-.05.08-.05.15-.03.23Zm2.81.38a.534.534 0 0 0-.45-.19V2.2l.98-.06 1.72 1.73-.08-1.19c-.01-.16-.05-.29-.13-.34a.627.627 0 0 0-.34-.06v-.22l1.12-.08.02.22c-.13.03-.23.05-.29.11-.05.05-.08.1-.11.16 0 .09-.01.17 0 .28l.13 2.19-.24.03-2.08-2.15.1 1.53c.01.18.07.3.15.36.08.05.19.07.34.06l.02.26-1.17.08v-.26c.09-.01.16-.02.23-.05.06-.02.1-.06.14-.13.03-.04.05-.14.04-.25l-.11-1.81Zm3.52 1.99.15-2.05c.01-.07 0-.12-.04-.15-.03-.03-.11-.04-.23-.05h-.14l.02-.27 1.6.11-.03.26h-.16c-.1-.01-.17-.02-.22.01-.03.01-.06.06-.07.13l-.16 2.08c0 .05.02.07.02.1.01.03.03.05.08.05.04.02.1.03.17.04.04-.01.09-.01.15 0l-.02.23-1.59-.11.02-.23c.07 0 .12 0 .14.02.11-.01.18-.01.24-.03.04-.02.06-.07.06-.13Zm.33-3.09c.01-.08.04-.13.1-.19.07-.06.14-.07.22-.07.05 0 .09.03.14.05.04.02.06.06.09.11.03.06.03.11.03.15 0 .08-.05.14-.11.2s-.13.07-.19.07c-.05 0-.09-.03-.14-.05a.415.415 0 0 1-.11-.12c-.01-.06-.02-.1-.02-.15Zm1.78 1.27c0-.12-.04-.2-.1-.24a.458.458 0 0 0-.21-.1l.04-.22 1.41.33-.05.22c-.1-.02-.19-.03-.25-.03-.06-.02-.09.01-.1.04v.06l.27 1.84.91-1.32s.05-.08.05-.11c.01-.04.01-.09.01-.11a.259.259 0 0 0-.07-.11c-.03-.02-.07-.05-.11-.07-.04-.02-.09-.05-.15-.06l.05-.19 1.17.27-.05.2c-.1-.02-.21 0-.33.07-.12.05-.24.14-.28.25l-1.46 2.02-.33-.07-.41-2.65Zm-5.15 34.51c.01-.15.06-.29.1-.39.07-.1.15-.2.25-.27.08-.07.2-.11.32-.13.1-.04.23-.05.35-.04.23.02.42.09.57.21.16.13.28.29.33.48.07.18.09.38.08.59-.01.1-.03.2-.05.33-.02.1-.05.2-.08.28-.03.09-.05.16-.09.22-.06.15-.17.3-.29.4-.12.1-.25.17-.39.22-.14.03-.29.05-.43.03-.12 0-.24-.03-.34-.08a.71.71 0 0 1-.26-.18.36.36 0 0 1-.09-.26.6.6 0 0 1 .13-.25c.06-.06.16-.09.27-.09.09.01.16.04.23.11.07.05.07.12.07.21 0 .04-.02.08-.05.14-.05.05-.07.1-.08.12.01.05.04.07.1.07.1.01.19-.01.28-.06.07-.05.15-.12.22-.23.04-.1.08-.22.11-.35.02-.13.05-.29.06-.46-.08.1-.17.17-.27.22-.1.05-.19.07-.32.08a.821.821 0 0 1-.38-.15c-.12-.07-.2-.17-.28-.32a.991.991 0 0 1-.07-.45Zm1.08-.62c-.23-.01-.35.17-.41.55-.03.42.07.65.3.66.12.01.23-.04.27-.16.05-.1.09-.26.09-.44.02-.37-.06-.58-.25-.6Zm3.07-.23.26-.02v.53l.1 1.24.42-.04.02.28-.44.03.03.33v.02s.02.07.05.08c.04 0 .1.01.22 0h.09l.02.25-1.3.09-.02-.25.19-.03c.11 0 .17-.04.17-.13l-.02-.33-1.03.08-.03-.29 1.27-1.84Zm-1 1.83.78-.04-.07-.97-.71 1.01Zm2.48-.98c-.02-.15-.01-.3.02-.45.03-.14.08-.28.15-.4.07-.13.16-.23.29-.32.1-.09.25-.17.38-.2.16-.05.31-.06.42-.03.13.02.23.07.29.12.09.07.13.15.15.24.03.08.01.17-.03.26-.05.08-.13.15-.23.17-.07.02-.16.01-.25-.01a.269.269 0 0 1-.15-.18.527.527 0 0 1 0-.25c.02-.02.03-.04.02-.06 0-.02-.04-.03-.07-.05a.37.37 0 0 0-.15 0c-.11.05-.18.13-.24.27-.03.13-.05.29-.02.46.01.17.06.37.1.57a.8.8 0 0 1 .18-.3c.08-.08.18-.14.31-.17.12-.03.25-.03.36-.01.13.03.25.08.35.17.1.09.17.22.23.37.03.1.04.25.04.36-.01.13-.03.25-.09.35a.81.81 0 0 1-.24.29c-.09.08-.22.14-.36.18-.24.07-.43.07-.62.01-.18-.06-.34-.17-.47-.33-.11-.16-.22-.35-.28-.58-.04-.13-.07-.3-.09-.47Zm1.04.02c-.08.03-.13.07-.16.14-.05.07-.05.16-.05.26l.06.31c.04.17.12.3.19.39.09.1.18.13.29.1.11-.03.17-.11.2-.24.01-.11 0-.27-.04-.42-.05-.17-.11-.33-.18-.43-.09-.11-.19-.14-.3-.11h-.01Z" class="cls-1"/><path d="M39.99 27.93c.97-2.55 1.41-5.28 1.31-8-.09-2.67-.71-5.31-1.81-7.75A20.858 20.858 0 0 0 27.92 1.32 20.55 20.55 0 0 0 20 .01c-2.7.09-5.36.7-7.82 1.81a20.858 20.858 0 0 0-6.57 4.71 20.657 20.657 0 0 0-4.28 6.86c-.97 2.55-1.41 5.27-1.32 8 .09 2.68.71 5.32 1.81 7.76a20.858 20.858 0 0 0 11.57 10.86c2.52.95 5.22 1.4 7.92 1.31 2.7-.08 5.38-.7 7.84-1.81 2.47-1.12 4.71-2.73 6.57-4.71 1.86-1.98 3.32-4.31 4.28-6.86Zm-1.21-15.44c2.15 4.75 2.33 10.29.48 15.16-.93 2.45-2.33 4.69-4.12 6.6a19.983 19.983 0 0 1-6.32 4.53 19.705 19.705 0 0 1-7.55 1.75c-2.59.08-5.19-.35-7.61-1.27-2.45-.93-4.69-2.33-6.6-4.12a19.983 19.983 0 0 1-4.53-6.32C.38 24.07.21 18.54 2.05 13.66c.93-2.45 2.33-4.69 4.12-6.6 1.79-1.91 3.94-3.45 6.32-4.53C14.86 1.45 17.43.86 20.04.78c2.59-.08 5.19.35 7.61 1.27 2.45.93 4.69 2.33 6.6 4.12 1.91 1.79 3.45 3.94 4.53 6.32Zm-3.07 8.17A15.069 15.069 0 0 1 31.3 31.3c-1.4 1.4-3.07 2.52-4.9 3.28a15.113 15.113 0 0 1-11.48 0c-1.83-.76-3.5-1.87-4.9-3.27-1.4-1.4-2.51-3.07-3.27-4.9a15.113 15.113 0 0 1 0-11.48c.76-1.83 1.87-3.5 3.27-4.9 1.4-1.4 3.07-2.52 4.9-3.28 3.65-1.51 7.84-1.51 11.48 0 1.83.76 3.5 1.87 4.9 3.27 1.4 1.4 2.51 3.07 3.27 4.9.76 1.82 1.14 3.77 1.14 5.74ZM26.1 33.85a14.358 14.358 0 0 1-10.89 0 14.33 14.33 0 0 1-4.65-3.11 14.33 14.33 0 0 1-3.11-4.65 14.358 14.358 0 0 1 0-10.89 14.33 14.33 0 0 1 3.11-4.65 14.33 14.33 0 0 1 4.65-3.11c3.45-1.43 7.43-1.43 10.89 0 1.73.72 3.32 1.78 4.65 3.11a14.33 14.33 0 0 1 3.11 4.65c.72 1.73 1.08 3.57 1.08 5.44s-.36 3.72-1.08 5.44a14.33 14.33 0 0 1-3.11 4.65 14.33 14.33 0 0 1-4.65 3.11Z" class="cls-2"/><path d="M25.28 16.25c-.02.14-.03.3-.02.43 0 .06.04.13.1.15.15.05.39-.04.42-.22l.05-.22c.14-.23.17-1.61-.12-1.91-.05-.06-.59-.33-.57-.28.25.3.22 1.66.13 2.07Zm-8.83-1.98.41-.16c.12-.04.04-.01.02.09-.11.4-.05 1.6.07 1.97.02.08.05.07 0 .12-.02.02-.04.04-.06.07-.04.07-.09.15-.16.19-.04.03-.23 0-.3-.03-.09-.04-.1-.22-.1-.22-.17-.92-.07-1.88.12-2.03Zm4.67 1.18c.05-.01.11-.07.15-.19a.87.87 0 0 0 0-.23c0-.05.02-.03 0-.08-.11-.28-.14-1.12-.08-1.62-.03-.12-.18-.2-.34-.2-.32 0-.28.47-.29.69-.03.47-.01 1.04.07 1.27.01.02.08.26.13.31.14.12.33.07.36.06Z" class="cls-2"/><path d="M25.3 16.25c-.01.07-.02.15-.02.23v.2c0 .03.02.06.03.09.01.02.03.04.06.05h.04c.07.01.14 0 .21-.03.06-.03.12-.08.14-.15s0-.02 0-.03.05-.22.05-.22c.08-.13.12-.62.09-1.08-.02-.35-.09-.68-.21-.81s-.3-.18-.45-.25c-.02-.01-.05-.02-.06-.03.09.15.14.44.16.77.03.48 0 1.04-.05 1.28Zm-.06.22c0-.08.01-.15.02-.23.05-.24.08-.79.05-1.28-.02-.35-.08-.66-.18-.78v-.02s.03-.02.06 0c.02 0 .05.02.08.03.16.07.42.21.46.25.13.13.2.47.22.83.03.47-.02.98-.1 1.11l-.05.22v.04c-.03.08-.09.14-.16.17-.07.04-.16.05-.23.04-.01 0-.03 0-.04-.01-.03-.01-.06-.03-.07-.06s-.03-.07-.04-.11v-.2Zm-8.8-2.21.41-.16c.06-.02.08-.03.09 0s0 .02-.01.04-.03.04-.03.08c-.05.19-.07.57-.05.95.01.41.06.82.12 1.02s.01.04.02.05.02.04-.02.09-.02.02-.03.03-.02.02-.03.04c-.02.04-.04.08-.07.11s-.06.07-.1.09c-.02.02-.08.02-.14.01-.07 0-.14-.02-.18-.04-.1-.04-.11-.22-.11-.24-.08-.44-.1-.88-.08-1.25.02-.41.1-.72.21-.8Zm.42-.13-.4.16c-.1.08-.17.38-.19.78-.02.36 0 .81.08 1.24 0 0 .01.17.09.21s.1.03.16.04h.11c.03-.02.06-.05.09-.08s.05-.07.07-.11.02-.03.03-.04l.03-.03s.02-.03.02-.05c0-.01-.01-.03-.02-.06-.06-.2-.11-.62-.13-1.03-.01-.38 0-.76.05-.95 0-.04.03-.07.04-.09 0-.01 0 .02-.04.03Zm4.26 1.31s.05-.02.07-.05c.02-.03.05-.07.06-.13V14.95c-.05-.14-.09-.41-.11-.71-.02-.31 0-.66.02-.92a.198.198 0 0 0-.11-.13.37.37 0 0 0-.21-.06c-.26 0-.27.36-.27.59v.09c-.02.24-.02.52 0 .75.01.21.04.4.07.51 0 0 0 .02.02.04.03.08.08.22.11.25s.1.06.15.07c.09.02.17 0 .19-.01Zm.1-.04s-.06.06-.1.07c-.02 0-.11.03-.2.01-.06 0-.12-.03-.17-.08a.845.845 0 0 1-.12-.27c0-.02-.01-.04-.01-.04-.04-.11-.06-.3-.08-.52a9.63 9.63 0 0 1 0-.76v-.08c0-.25.01-.62.31-.62.08 0 .16.02.23.06.06.04.11.09.13.16-.03.26-.04.6-.02.91.01.29.05.56.1.69.01.04.01.04 0 .06s0 .01 0 .03v.24c-.02.06-.04.1-.07.14Z" class="cls-1"/></svg>