<svg xmlns="http://www.w3.org/2000/svg" id="Layer_1" viewBox="0 0 48 48"><defs><style>.cls-2{stroke-width:0;fill:#5d3ebc}</style></defs><path d="M0 0h48v48H0z" style="stroke-width:0;fill:#ffd10d"/><path d="M0 24v24h6.08c3.35 0 6.08-.09 6.08-.17 0-.11-.19-.36-.43-.58-.77-.68-1.66-2.33-2.05-3.69-.32-1.15-.34-1.51-.11-2.75.28-1.49 1-3.24 1.73-4.07l.41-.51 1.75 1.54c3.05 2.69 5.8 4.25 9.83 5.53 5.21 1.64 9.37 1.15 11.88-1.45 1.24-1.26 1.56-2.05 2.75-6.59l.85-3.26-.77.68c-1.96 1.73-5.95 2.9-8.98 2.65-4.67-.43-9.62-3.01-12.16-6.38-4.2-5.59-4.54-13.93-.87-21.65 1.24-2.56 2.45-4.33 4.16-6.06L21.39.02H0v24Z" class="cls-2"/><path d="M31.45 5.93c-3.11 1.11-5.55 4.29-6.72 8.83-.66 2.5-.51 5.76.3 7.45.73 1.51 2.11 2.82 3.95 3.67 1.3.62 1.6.68 3.58.68s2.2-.04 3.8-.83c4.2-2.07 6.53-6.4 6.27-11.63-.21-3.78-1.58-6.08-4.5-7.59-1.51-.77-1.81-.83-3.63-.9-1.49-.06-2.22.02-3.05.32Z" class="cls-2"/></svg>